# xmcd
#
# Track frame offsets: 
#        150
#        25217
#        52812
#        67003
#        91940
#        110850
#        125997
#        138852
#        155951
#        160317
#        181958
#        201180
#        209323
#        228313
#        248001
#        263926
#        282228
#        300657
#        319751
#
# Disc length: 4436 seconds
#
# Revision: 6
# Processed by: cddbd v1.5.1PL2 Copyright (c) Steve Scherf et al.
# Submitted via: ExactAudioCopy v0.95b4
#
DISCID=1a115213
DTITLE=B.B. King - King Of The Blues
DYEAR=1992
DGENRE=Blues
TTITLE0=Let The Good Times Roll
TTITLE1=Don't You Lie To Me
TTITLE2=Mother Fuyer
TTITLE3=Never Make A Move Too Soon
TTITLE4=When It All Comes Down
TTITLE5=Better Not Look Down
TTITLE6=Caldonia
TTITLE7=There Must Be A Better World Somewhere 
TTITLE8=Play With Your Poodle
TTITLE9=Darlin' You Know I Love You
TTITLE10=Inflation Blues
TTITLE11=Make Love To Me
TTITLE12=Into The Night
TTITLE13=Six Silver Strings
TTITLE14=When Love Comes To Town
TTITLE15=Right Time, Wrong Place
TTITLE16=Many Miles Travelled
TTITLE17=I'm Moving On
TTITLE18=Since I Met You Baby
EXTD=
EXTT0=
EXTT1=
EXTT2=
EXTT3=
EXTT4=
EXTT5=
EXTT6=
EXTT7=
EXTT8=
EXTT9=
EXTT10=
EXTT11=
EXTT12=
EXTT13=
EXTT14=
EXTT15=
EXTT16=
EXTT17=
EXTT18=
PLAYORDER=
